<svg id="Layer_1" data-name="Layer 1" xmlns="http://www.w3.org/2000/svg" viewBox="0 0 1276 1010"><defs><style>.cls-2{fill:none;stroke:#fff;stroke-miterlimit:10;stroke-width:2px}</style></defs><path class="cls-2" d="M208.99-25v1113M288.5-25v1113M49.97-25v1113M129.48-25v1113M413 451.84h-1998.5M413 531.35h-1998.5M413 54.3l-1998.5-.01M413 133.8h-1998.5M413 213.31h-1998.5M413 292.82h-1998.5M413 372.33h-1998.5M413 611.16h-1998.5M413 690.67h-1998.5M413 770.18h-1998.5M413 849.69h-1998.5M413 929.19h-1998.5M413 1008.7h-1998.5"/><path style="fill:#caeaff" d="M5 0h1276v1010H5z"/><path class="cls-2" d="M635.09-25v1113M714.6-25v1113M-.98-25v1113M78.53-25v1113M158.04-25v1113M237.55-25v1113M317.05-25v1113M396.56-25v1113M476.07-25v1113M555.58-25v1113M794.41-25v1113M873.92-25v1113M953.43-25v1113M1032.94-25v1113M1112.45-25v1113M1191.95-25v1113M1271.46-25v1113M1714 451.84H-284.5M1714 531.35H-284.5M1714 54.3l-1998.5-.01M1714 133.8H-284.5M1714 213.31H-284.5M1714 292.82H-284.5M1714 372.33H-284.5M1714 611.16H-284.5M1714 690.67H-284.5M1714 770.18H-284.5M1714 849.69H-284.5M1714 929.19H-284.5M1714 1008.7H-284.5"/></svg>